<svg xmlns="http://www.w3.org/2000/svg" xmlns:xlink="http://www.w3.org/1999/xlink" viewBox="0 0 631.72 475.98"><defs><style>.cls-1{fill:url(#Degradado_sin_nombre_137);}.cls-2{fill:url(#Degradado_sin_nombre_137-2);}.cls-3{fill:url(#Degradado_sin_nombre_137-3);}.cls-4{fill:url(#Degradado_sin_nombre_137-4);}</style><linearGradient id="Degradado_sin_nombre_137" x1="-20.76" y1="319.7" x2="816.03" y2="-76.68" gradientUnits="userSpaceOnUse"><stop offset="0.06" stop-color="#69bc93"/><stop offset="1" stop-color="#649cd4"/></linearGradient><linearGradient id="Degradado_sin_nombre_137-2" x1="14.71" y1="394.59" x2="851.5" y2="-1.79" xlink:href="#Degradado_sin_nombre_137"/><linearGradient id="Degradado_sin_nombre_137-3" x1="-11.35" y1="360.47" x2="932.02" y2="-86.39" xlink:href="#Degradado_sin_nombre_137"/><linearGradient id="Degradado_sin_nombre_137-4" x1="75.35" y1="543.51" x2="1018.72" y2="96.65" xlink:href="#Degradado_sin_nombre_137"/></defs><g id="Capa_2" data-name="Capa 2"><g id="Capa_1-2" data-name="Capa 1"><polygon class="cls-1" points="228.23 44.11 114.11 44.1 0 158.21 285.28 386.44 285.28 101.16 228.23 44.11"/><polygon class="cls-2" points="59.18 409.26 173.3 466.31 173.3 317.97 59.18 226.68 59.18 409.26"/><polygon class="cls-3" points="503.07 0.01 374.42 0 310.1 64.33 310.1 385.94 567.39 180.11 567.39 180.11 567.39 180.11 631.72 128.65 503.07 0.01"/><polygon class="cls-4" points="438.74 475.99 567.39 411.66 567.39 205.83 438.74 308.75 438.74 475.99"/></g></g></svg>